<svg xmlns="http://www.w3.org/2000/svg" version="1.1" xmlns:xlink="http://www.w3.org/1999/xlink" xmlns:svgjs="http://svgjs.dev/svgjs" width="1000" height="750" viewBox="0 0 1000 750"><rect width="1000" height="750" fill="#ffffff"></rect><g transform="matrix(0.47058823529411764,0,0,0.47058823529411764,265.2364921677605,83.23643724696353)"><svg viewBox="0 0 199 247" data-background-color="#ffffff" preserveAspectRatio="xMidYMid meet" height="1241" width="1000" xmlns="http://www.w3.org/2000/svg" xmlns:xlink="http://www.w3.org/1999/xlink"><g id="tight-bounds" transform="matrix(1,0,0,1,-0.22438162544170837,-0.09999999999999432)"><svg viewBox="0 0 199.4487632508834 247.2" height="247.2" width="199.4487632508834"><g><svg viewBox="0 0 199.4487632508834 247.2" height="247.2" width="199.4487632508834"><g><svg viewBox="0 0 199.4487632508834 247.2" height="247.2" width="199.4487632508834"><g id="textblocktransform"><svg viewBox="0 0 199.4487632508834 247.2" height="247.2" width="199.4487632508834" id="textblock"><g><svg viewBox="0 0 199.4487632508834 247.2" height="247.2" width="199.4487632508834"><g transform="matrix(1,0,0,1,0,0)"><svg width="199.4487632508834" viewBox="2.25 -36.5 34.25 42.45000076293945" height="247.2" data-palette-color="#2257bf"><path d="M27.75 5.95L27.75 5.95 4.55 5.95Q3.35 5.95 2.8 5.4 2.25 4.85 2.25 3.65L2.25 3.65 2.25-28.75Q2.25-29.4 2.43-29.85 2.6-30.3 2.95-30.6L2.95-30.6 9.4-36.05Q9.65-36.25 10.08-36.38 10.5-36.5 11-36.5L11-36.5 34.2-36.5Q35.4-36.5 35.95-35.95 36.5-35.4 36.5-34.2L36.5-34.2 36.5-28.35Q36.5-27.7 36.33-27.25 36.15-26.8 35.8-26.5L35.8-26.5 31.5-22.95Q32-22.7 32.23-22.2 32.45-21.7 32.45-20.9L32.45-20.9 32.45-15.55Q32.45-14.9 32.27-14.45 32.1-14 31.75-13.7L31.75-13.7 27.3-9.95 34.2-9.95Q35.4-9.95 35.95-9.4 36.5-8.85 36.5-7.65L36.5-7.65 36.5-1.8Q36.5-1.15 36.33-0.7 36.15-0.25 35.8 0.05L35.8 0.05 29.3 5.45Q29.1 5.65 28.68 5.8 28.25 5.95 27.75 5.95ZM11 0L34.2 0Q35.15 0 35.58-0.43 36-0.85 36-1.8L36-1.8 36-7.65Q36-8.6 35.58-9.03 35.15-9.45 34.2-9.45L34.2-9.45 20.4-9.45 20.4-13.75 30.15-13.75Q31.1-13.75 31.53-14.18 31.95-14.6 31.95-15.55L31.95-15.55 31.95-20.9Q31.95-21.85 31.53-22.28 31.1-22.7 30.15-22.7L30.15-22.7 20.4-22.7 20.4-26.55 34.2-26.55Q35.15-26.55 35.58-26.98 36-27.4 36-28.35L36-28.35 36-34.2Q36-35.15 35.58-35.58 35.15-36 34.2-36L34.2-36 11-36Q10.05-36 9.63-35.58 9.2-35.15 9.2-34.2L9.2-34.2 9.2-1.8Q9.2-0.85 9.63-0.43 10.05 0 11 0L11 0ZM15.15-5L31.5-5 31.5-4.5 14.65-4.5 14.65-31.5 31.5-31.5 31.5-31 15.15-31 15.15-18.45 27.45-18.45 27.45-17.95 15.15-17.95 15.15-5Z" opacity="1" transform="matrix(1,0,0,1,0,0)" fill="#2257bf" class="undefined-text-0" data-fill-palette-color="primary" id="text-0"></path></svg></g></svg></g></svg></g></svg></g><g></g></svg></g><defs></defs></svg><rect width="199.4487632508834" height="247.2" fill="none" stroke="none" visibility="hidden"></rect></g></svg></g></svg>